<svg width="89" height="29" viewBox="0 0 89 29" fill="none" xmlns="http://www.w3.org/2000/svg">
<g clip-path="url(#clip0_1233_4340)">
<path d="M26.3239 23.5586C25.776 23.5586 25.305 24.9968 23.952 24.9968C21.6203 24.9968 18.9946 20.0392 18.9946 18.992C18.9946 18.4485 26.2036 16.8148 26.2036 12.1488C26.2036 9.99143 24.8507 8.57308 22.5189 8.57308C17.3844 8.57308 14.114 15.2407 13.7599 15.2407C13.6998 15.2407 13.6229 15.1644 13.6229 14.8728C13.6229 13.8621 16.1885 2.56828 16.1885 0.934522C16.1885 0.430808 15.9346 0 15.1897 0C15.1396 0 15.0761 0.00662781 15.0193 0.00994172V0H0L2.59564 3.94686H10.1053C10.4861 4.19209 10.7634 4.60302 10.7634 5.30225C10.7634 5.40167 10.7567 5.54085 10.74 5.71649H3.39738L5.99302 9.66335H10.1788C10.0852 10.23 9.98502 10.8332 9.88146 11.4562H6.7981L9.23339 15.1578C8.71226 18.0376 8.16774 20.8942 7.79026 22.7201C7.2424 25.2652 6.55424 27.2105 6.55424 27.8136C6.55424 28.2809 6.71125 28.7481 7.63325 28.7481C9.17994 28.7481 10.9438 28.4764 11.5317 27.9893C12.0228 27.6214 12.2165 26.783 12.2165 26.0838C12.2165 25.4409 12.2767 24.1219 12.4504 22.8958C13.0784 18.601 16.8199 12.3609 19.7796 12.3609C20.6215 12.3609 21.1894 12.8646 21.1894 13.9151C21.1894 16.1321 17.6417 17.7824 15.507 18.6971C14.9191 18.9489 14.6051 19.3963 14.6051 19.9398C14.6051 22.5246 17.8388 28.9602 22.108 28.9602C25.0477 28.9602 26.7314 26.3555 26.7314 24.2943C26.7314 23.8469 26.5543 23.5553 26.3205 23.5553L26.3239 23.5586Z" fill="#4956F3"/>
<path d="M36.9605 0C36.3125 0 34.7056 0.351274 32.9819 1.07039C31.4719 1.71329 30.7671 2.17724 30.7671 2.97589C30.7671 3.42327 31.178 3.5989 31.512 3.77454C32.12 3.97006 32.4708 4.45389 32.4708 5.30888C32.4708 7.48612 29.0801 20.1784 29.0801 24.5925C29.0801 27.3928 30.6101 28.8674 32.6478 28.8674C35.3136 28.8674 36.7434 26.5941 36.7434 24.9405C36.7434 24.4169 36.5463 24.3174 36.4093 24.3174C35.8815 24.3174 35.6042 25.4044 34.8226 25.4044C34.2747 25.4044 33.8237 24.8974 33.8237 23.7143C33.8237 19.1842 37.9193 3.77123 37.9193 0.934522C37.9193 0.291624 37.5284 0 36.9605 0Z" fill="#4956F3"/>
<path d="M44.8938 20.3708C49.0862 20.0592 56.4556 18.3095 56.4556 13.3552C56.4556 10.6908 54.3009 8.57324 50.4792 8.57324C43.9751 8.57324 38.9375 14.578 38.9375 20.8778C38.9375 25.6001 41.797 29.0035 46.6376 29.0035C52.517 29.0035 55.8275 24.1453 55.8275 21.8322C55.8275 21.3649 55.6304 21.1528 55.3765 21.1528C55.1227 21.1528 54.9456 21.3848 54.6717 21.6565C53.6528 22.8628 51.8489 25.2323 48.6352 25.2323C45.4216 25.2323 44.3426 22.5679 44.3426 21.1694C44.3426 20.5464 44.4996 20.4105 44.8904 20.3741L44.8938 20.3708ZM44.1121 17.5142C44.1121 14.7537 46.6977 11.0786 49.6775 11.0786C51.3612 11.0786 52.1662 12.2649 52.1662 13.6071C52.1662 17.027 46.5039 18.273 44.6232 18.273C44.1922 18.273 44.1121 17.9814 44.1121 17.5142Z" fill="#4956F3"/>
<path d="M65.6063 0.543457C63.5886 0.543457 61.8047 2.3893 61.8047 4.21858C61.8047 5.38507 62.5496 6.37593 64.0963 6.37593C65.957 6.37593 68.0148 4.85816 68.0148 2.85656C68.0148 1.49455 67.0361 0.543457 65.6063 0.543457Z" fill="#4956F3"/>
<path d="M66.3874 24.3175C65.8596 24.3175 65.5456 25.4045 64.7605 25.4045C64.2127 25.4045 63.7416 24.8809 63.7416 23.499C63.7416 19.7874 66.6012 11.5059 66.6012 9.50435C66.6012 8.86145 66.2471 8.56982 65.6591 8.56982C65.0111 8.56982 63.7583 8.84156 61.7807 9.58057C60.3509 10.1042 59.4089 10.5913 59.4089 11.5258C59.4089 11.9732 59.7997 12.2052 60.1338 12.3411C60.7618 12.5167 61.0725 12.9641 61.0725 13.5838C61.0725 15.1976 58.9746 21.1262 58.9746 24.5263C58.9746 27.3265 60.5413 28.8609 62.6192 28.8609C65.3217 28.8609 66.7148 26.5875 66.7148 24.9339C66.7148 24.4103 66.5177 24.3109 66.3807 24.3109L66.3874 24.3175Z" fill="#4956F3"/>
<path d="M88.6657 24.3176C88.1579 24.3176 87.8806 25.4046 87.0989 25.4046C86.6279 25.4046 86.3139 24.8611 86.3139 23.9465C86.3139 21.7891 87.1958 17.1231 87.9007 13.7628C88.2915 11.8573 88.7826 10.3793 88.7826 10.0314C88.7826 9.40835 88.5287 9.0405 88.0577 9.0405C86.962 9.0405 84.5701 11.8772 84.236 11.8772C83.902 11.8772 82.7662 8.57324 78.8877 8.57324C74.0071 8.57324 69.1299 13.8225 69.1299 21.6367C69.1299 25.9116 71.3447 28.9637 75.1463 28.9637C77.792 28.9637 79.5358 27.5454 80.8286 26.1833C81.1994 25.7956 81.3397 25.5802 81.4934 25.5802C81.6304 25.5802 81.6905 25.8321 81.7673 26.1436C81.9444 27.6415 83.1203 28.8643 84.7271 28.8643C87.3929 28.8643 88.9997 26.591 88.9997 24.9373C88.9997 24.4137 88.8026 24.3143 88.6657 24.3143V24.3176ZM77.4379 25.6399C75.2432 25.6399 74.1675 23.7145 74.1675 20.722C74.1675 15.2806 77.0671 11.294 79.7897 11.294C81.3765 11.294 82.7094 12.7123 82.7094 15.9401C82.7094 21.8289 80.1638 25.6399 77.4379 25.6399Z" fill="#4956F3"/>
</g>
<defs>
<clipPath id="clip0_1233_4340">
<rect width="89" height="29" fill="white"/>
</clipPath>
</defs>
</svg>
